<svg version="1.1" viewBox="0 0 16 16" xmlns="http://www.w3.org/2000/svg" fill="currentColor">
 <g stroke-linecap="round" stroke-linejoin="round" stroke-width=".85">
  <path d="m3.6 6.5h8.8c0.89 0 1.6 0.67 1.6 1.5s-0.72 1.5-1.6 1.5h-8.8c-0.89 0-1.6-0.67-1.6-1.5s0.72-1.5 1.6-1.5z"/>
  <path d="m3.6 11h8.8c0.89 0 1.6 0.67 1.6 1.5s-0.72 1.5-1.6 1.5h-8.8c-0.89 0-1.6-0.67-1.6-1.5s0.72-1.5 1.6-1.5z"/>
  <path d="m3.6 2h8.8c0.89 0 1.6 0.67 1.6 1.5s-0.72 1.5-1.6 1.5h-8.8c-0.89 0-1.6-0.67-1.6-1.5s0.72-1.5 1.6-1.5z"/>
 </g>
</svg>
